<svg width="923" height="564" viewBox="0 0 923 564" fill="none" xmlns="http://www.w3.org/2000/svg">
<g id="Cloud">
<rect width="923" height="564" fill="white"/>
<path id="Vector 5" d="M304 238C301.437 237.68 307.039 230.191 307.056 230.167C315.034 218.417 328.071 210.765 339.611 202.944C359.459 189.494 379.265 175.808 400.667 164.889C413.565 158.308 426.862 153.101 440.778 149.111C447.023 147.32 457.218 143.353 464.056 145.167C476.126 148.369 486.464 163.353 491.556 173.889C494.369 179.711 494.358 187.367 497.222 192.778C498.336 194.882 504.45 192.14 505.556 191.778C518.651 187.482 532.169 185.989 545.778 184C574.54 179.797 603.427 177.494 632.444 180.611C641.623 181.597 650.517 183.579 658.889 187.556C665.576 190.732 669.377 198.761 672.833 204.889C678.626 215.158 678 225.187 678 236.556C678 238.916 678.148 238.971 680.778 239C696.053 239.166 711.247 239.117 726.444 241.111C759.732 245.48 793.446 253.831 825.056 265.111C840.214 270.521 853.601 277.631 862.333 291.5C870.769 304.898 874.386 323.156 874 338.833C873.664 352.494 859.827 363.355 848.5 368.778C842.229 371.78 835.335 372.155 829.111 375.444C825.324 377.446 821.286 379.127 817.778 381.556C813.684 384.39 818.495 396.665 819.111 400.667C820.158 407.474 820.724 415.151 819.556 422C815.579 445.316 787.5 462.679 766.556 468.278C740.493 475.245 714.071 465.36 688.5 460.611C687.436 460.414 680.473 457.778 679.389 458.278C676.989 459.386 671.413 465.962 670.444 466.889C662.088 474.889 653.669 482.942 644.667 490.222C622.535 508.12 589.193 505.539 563.556 498.389C550.076 494.629 536.464 490.364 523.667 484.667C513.276 480.041 500.431 474.99 494 465C492.359 462.451 491.165 458.61 489 456.444C486.947 454.392 477.708 460.094 476.667 460.556C447.03 473.687 418.744 483.889 386 484.889C358.21 485.737 334.186 471.899 315.111 452.222C305.36 442.163 299.262 428.012 299 413.889C298.934 410.315 296.713 411.017 293.333 411.222C280.671 411.993 270.065 411.603 257.667 407.889C242.082 403.221 222.096 398.671 209.667 387.389C202.129 380.547 194.785 372.07 190.222 362.944C182.467 347.434 176.886 330.122 178.111 312.667C178.65 304.989 182.125 298.859 187.556 294C189.357 292.388 188.711 290.604 187.889 288.444C184.281 278.962 179.409 270.18 176.667 260.333C171.776 242.773 181.819 219.969 199.056 212.5C211.863 206.95 229.974 204.695 242.667 211.222C264.887 222.65 288.399 232.133 312 240" stroke="#1E1E1E" stroke-width="3" stroke-linecap="round"/>
</g>
</svg>
