<svg width="934" height="656" viewBox="0 0 934 656" fill="none" xmlns="http://www.w3.org/2000/svg">
<rect width="934" height="656" fill="white"/>
<path d="M24 469C27.0792 468.658 33.1936 461.854 34.9444 459.556C39.7415 453.259 44.8946 447.377 49.5 441C54.8207 433.633 61.214 426.552 68.0556 420.5C78.4632 411.293 86.9654 400.265 97.2778 390.778C120.27 369.625 145.13 353.124 175.333 344.222C186.671 340.881 196.815 335.147 208.444 332.778C214.281 331.589 219.693 330.247 225.722 330.056C240.958 329.572 256.22 328.153 271.444 328C282.446 327.889 292.151 327.907 302.667 330.611C309.591 332.392 315.535 336.532 322.389 338.056C322.438 338.067 313.827 340.51 311.5 341C304.952 342.379 299.903 344.104 293.556 346.389C287.458 348.584 281.839 349.111 276.222 353C271.194 356.481 267.565 360.231 263.778 365C256.039 374.746 251.737 385.753 247 397.222C242.095 409.098 240.007 418.359 245.5 430.444C247.82 435.549 253.184 446.652 259.5 448.056C272.846 451.021 286.234 451.5 300.222 451C306.76 450.767 310.175 446.615 315.444 443.778C321.403 440.569 327.987 436.605 331.444 430.556C336.7 421.358 345.36 415.015 351.111 406.389C357.362 397.013 366.048 390.204 373.056 381.444C379.921 372.862 389.398 366.19 398.611 360.389C407.4 354.855 415.137 348.754 425 345.056C443.868 337.98 465.893 333 486 333C495.749 333 504.996 335.362 514.556 336.778C521.706 337.837 526.256 338.952 532.778 343C536.506 345.314 529.666 343.948 527.889 344C524.141 344.109 519.622 346.079 516.111 347.444C509.415 350.048 503.559 353.012 497.389 356.5C488.86 361.321 480.315 368.443 473 374.944C467.169 380.127 460.785 385.703 458.111 393.389C455.178 401.821 456.139 414.722 460 422.444C467.213 436.871 483.427 438.841 497 444.556C500.221 445.912 505.503 445.384 509 445.778C516.85 446.662 525.06 446 532.944 446C537.823 446 544.461 447.206 549.222 445.778C554.699 444.135 559.305 440.156 564.333 437.556C568.811 435.24 570.347 430.734 574.222 427.778C577.618 425.188 580.365 422.154 583.556 419.389C591.532 412.476 599.147 403.059 604.5 394C617.396 372.176 638.363 349.398 662 340C676.983 334.043 692.299 332.177 707.778 328C720.19 324.651 733.328 324.941 746 323.222C752.122 322.392 760.312 322.908 765.5 326.5C770.305 329.826 772.405 329.841 765.389 332C752.186 336.063 737.509 338.677 725.944 346.5C719.483 350.871 710.671 353.031 706 359.778C702.22 365.238 700.918 372.993 698 379C692.749 389.811 691.179 405.302 698.222 415.444C703.194 422.604 708.066 428.666 715 434.444C720.511 439.037 722.949 440 730.444 440C741.778 440 753.111 440 764.444 440C779.211 440 793.248 435.719 807.833 435.056C814.104 434.771 820.124 432.419 826.389 431.444C834.176 430.233 841.967 427.423 849.444 425C857.524 422.382 866.05 418.902 874.333 417.111C880.557 415.765 885.853 412.318 891.778 410C896.763 408.049 901.016 404.786 905.444 402.222C911.624 398.645 918.27 396.297 924 392" stroke="black" stroke-width="3" stroke-linecap="round"/>
<path d="M318 167C319.513 166.811 321.866 163.134 322.944 162.056C326.301 158.699 329.638 155.362 333 152C340.289 144.711 348.646 136.077 357.389 131C367.112 125.355 376.246 119.826 386.5 115C400.401 108.459 415.084 105.399 429.444 100.056C438.998 96.5008 448.583 96.3303 458.556 95.2222C464.599 94.5507 471.785 93.2714 475.222 99C478.828 105.01 482.803 109.71 485 116.667C487.008 123.025 487.958 130.929 491.222 136.778C495.649 144.708 499.965 159.295 491 165C481.548 171.015 472.637 176.171 462 179.556C448.395 183.884 434.353 186.418 420.111 188C398.939 190.352 376.633 190.607 356.444 184C352.928 182.849 349.438 183.707 346 182.778C341.532 181.57 337.44 178.542 333 177.222C324.363 174.654 315.844 172.302 307 170C300.614 168.338 293.738 167.219 287.556 165C282.547 163.202 277.531 160.845 272.278 159.944C264.941 158.687 257.193 156.641 250.056 154.5C245.428 153.112 240.41 152.595 235.944 151C230.939 149.212 225.269 149.933 220.111 148.5C216.584 147.52 219.095 149.86 220 151.444C222.538 155.886 227.207 160.419 230.5 164.444C248.925 186.964 257.589 215.158 274.222 238.444C277.765 243.405 280.629 249.472 283.944 254.444C284.502 255.28 283.965 252.415 284.222 251.444C284.537 250.257 285.728 249.633 285.944 248.444C286.288 246.554 286 244.372 286 242.444C286 230.746 288.627 220.429 291.056 209.5C292.903 201.186 300.349 193.428 306 187.444C308.504 184.793 311.239 182.317 313.778 179.778C317.227 176.329 318.665 171.335 322 168" stroke="black" stroke-width="3" stroke-linecap="round"/>
<path d="M492 144C489.343 148.723 482.997 145.944 478.778 147.444C471.907 149.887 464.477 149 457.222 149C448.158 149 440 149.462 440 138" stroke="black" stroke-width="3" stroke-linecap="round"/>
<path d="M457 112C454.423 114.577 449.889 122.938 454 125.222C456.334 126.519 468.857 131.392 469.944 126.5C470.743 122.905 470.929 115.405 467.5 113.5C464.829 112.016 453.685 113.842 456 115" stroke="black" stroke-width="3" stroke-linecap="round"/>
<path d="M461 120C461 122.813 460.104 122.184 460.556 122.056C461.67 121.737 466.022 121.471 464.444 123.5C463.526 124.681 459.008 126.209 458 124.444C455.928 120.819 457.901 122.203 459.944 120.5C461.768 118.98 464.36 121.196 462.556 123C461.365 124.191 455.906 124.962 457.222 122C459.65 116.538 464 118.961 464 124" stroke="black" stroke-width="3" stroke-linecap="round"/>
<path d="M25 334C25.8576 328.854 30.472 324.528 34 321C36.5344 318.466 39.0632 316.366 42.1111 314.444C48.9169 310.154 54.3612 304.441 60.4444 299.222C71.9492 289.352 84.357 280.565 95.8889 270.667C107.549 260.658 118.853 250.261 131.111 240.944C148.072 228.054 166.395 217.452 184.556 206.556C186.889 205.155 196.027 202.335 197.167 200.056C198.793 196.804 190.275 202.719 187.444 205C182.381 209.08 178.195 214.074 172.889 217.889C150.206 234.2 127.523 247.613 108.778 268.778C90.1443 289.816 67.6915 308.048 54.5556 333.444C54.2984 333.942 51.8671 339.326 51.2222 339.111C49.9885 338.7 57.7596 331.29 58.0556 331.056C69.7806 321.773 78.2585 310.235 88.5556 299.5C108.546 278.659 132.785 264.603 156.333 248.222C164.978 242.208 172.739 235.835 182.444 231.556C195.569 225.768 208.278 219.088 221.333 213.222C225.294 211.443 229.288 209.923 233.389 208.5C234.109 208.25 241.514 205.165 241.333 205.889C240.506 209.199 235.972 211.593 234 214.222C229.388 220.371 224.767 226.16 219.611 231.889C212.057 240.283 205.177 249.478 200.333 259.667C195.859 269.079 190.772 279.988 184.611 288.389C180.81 293.572 178.338 300.269 175.444 306.056C174.869 307.206 171.52 311.728 175.222 310.556C182.357 308.296 188.478 300.694 194.222 296.222C204.853 287.946 214.291 277.789 225.222 270C230.06 266.553 233.402 261.926 238 258.222C241.248 255.605 244.257 253.307 247.778 251C255.229 246.118 246.858 254.825 245.111 257.444C236.76 269.971 230.152 285.087 224.5 299C222.687 303.464 218 309.188 218 314" stroke="black" stroke-width="3" stroke-linecap="round"/>
</svg>
