<svg width="775" height="572" viewBox="0 0 775 572" fill="none" xmlns="http://www.w3.org/2000/svg">
<rect width="775" height="572" fill="white"/>
<path d="M535 168C534.142 164.567 501.188 167.375 499 168C495.593 168.974 492.504 168.856 489 169C484.239 169.196 480.061 171.577 475.444 172.5C467.468 174.095 458.801 177.236 451.444 180.778C445.704 183.541 439.671 184.724 434.056 188C428.534 191.221 422.381 193.811 416.222 195.556C404.785 198.796 394.035 201.922 383.778 208C381.059 209.611 366.568 216.275 364 213.556C362.103 211.547 361.641 205.68 360.444 202.944C358.814 199.217 359.424 195.078 357.556 191.444C356.683 189.749 355.006 188.435 354 186.778C352.424 184.182 353.144 180.911 351.944 178.111C350.226 174.101 348.403 170.252 347.222 166C346.261 162.54 344.165 159.219 342.556 156C340.44 151.768 336.672 149.009 334.444 145C330.562 138.011 326.037 129.139 320.778 123.222C318.128 120.241 315.968 115.676 313.556 112.167C311.48 109.148 308.463 106.278 305.778 103.778C293.341 92.1991 272.924 86 256.222 86C250.112 86 241.556 84.7174 236.222 88C230.705 91.3952 229.23 92.1755 226.778 98C222.422 108.344 224 120.9 224 132C224 146.981 225.145 164.312 233.444 177.222C235.853 180.968 236.393 184.198 238.5 187.944C240.278 191.105 242.063 192.86 243.222 196.222C244.692 200.483 248.465 203.814 250.056 208.056C250.912 210.339 252.614 216.008 254.222 217.778C256.297 220.06 258.592 221.758 259.056 225C259.367 227.182 261.993 231.765 263.778 233C265.938 234.496 275.946 243.927 274.778 246.556C274.041 248.213 269.022 249 267.556 249C264.357 249 261.209 251.023 258 251.778C255.05 252.472 253.204 254.039 250.444 255.5C247.39 257.117 243.948 257.748 241 259.222C234.448 262.498 226 264.937 220 269.222C212.268 274.745 204.576 280.034 196 284.444C186.546 289.307 178.282 295.531 169 300.444C161.362 304.488 153.43 310.271 145 312.778C139.808 314.321 131.924 323.878 127.778 316C124.511 309.793 122.273 301.479 115.222 298.556C110.72 296.689 76.691 281.437 77 287C77.2414 291.345 81.2919 295.65 82.7778 299.778C83.9397 303.005 86.8086 310.124 89 312.444C93.9443 317.68 94.9025 323.248 101 327.778C106.19 331.633 109.399 337.8 115 341.222C125.691 347.755 129.836 358.35 133.222 369.778C134.723 374.842 137.686 380.657 138 386C138.109 387.852 140.637 389.85 140.944 392C141.43 395.402 141.293 396.958 145 394.778C146.715 393.769 148.649 389.956 149.944 388.444C152.235 385.772 153.5 384.742 155 381.556C157.723 375.769 159 367.561 159 361.222C159 358.155 157.431 348.636 160.444 347C164.728 344.675 169.321 340.184 174.056 339C176.367 338.422 178.039 337.363 180 336.056C182.419 334.443 186.037 334.372 188.778 333.222C196.929 329.804 204.825 327.6 213.444 325.611C221.729 323.699 229.66 320.477 238 318.778C250.797 316.171 262.298 309.878 274.222 305C282.741 301.515 290.45 296.658 298.222 291.778C301.308 289.84 304.972 287.632 308.444 286.611C311.026 285.852 310 291.34 310 293C310 299.293 319.597 308.442 323.778 312.778C325.4 314.46 327.143 315.817 329 317.222C331.893 319.411 335.12 319.795 337.944 321.611C340.471 323.235 342.144 326.045 344.5 327.889C347.14 329.955 350.339 331.523 353.111 333.444C368.523 344.13 382.524 358.864 399.444 367.222C407.617 371.259 415.282 374.329 424 376.944C433.809 379.887 444.956 383.694 455.222 384C464.356 384.273 477.049 384.963 481.778 374.778C482.798 372.58 485.19 371.13 485.778 368.778C486.415 366.229 486 363.167 486 360.556C486 354.225 486.117 347.884 486 341.556C485.893 335.756 482.323 330.209 479.944 325.056C478.293 321.478 474.867 319.119 472.611 315.944C469.308 311.296 466.545 306.523 463 302C457.115 294.492 450.805 285.805 444.056 279.056C438.352 273.352 434.816 265.758 428 261C423.115 257.59 418.178 254.742 413.5 251C411.704 249.563 418.055 247.62 419 247.222C422.48 245.757 429.81 246 433.611 246C437.301 246 445.863 246.51 449 244C450.349 242.921 452.334 242.582 454 242.222C457.389 241.489 459.867 240.109 463.111 239.111C470.553 236.821 478.408 234.288 486 232.444C489.684 231.55 493.569 231.599 497.222 230.556C501.148 229.434 504.734 227.313 508.611 226.056C515.073 223.96 521.126 220.742 527.556 218.778C532.246 217.345 536.422 212.17 539.944 209C543.959 205.387 547.972 202.375 551.222 198C555.658 192.029 559.133 182.676 552 177.222C549.37 175.211 547.893 172.893 545.556 170.556C543.7 168.7 540.412 168.365 538 167.222C534.933 165.769 529.395 167.057 526.056 166.5C521.106 165.675 516.008 166 511 166" stroke="black" stroke-width="3" stroke-linecap="round"/>
<path d="M476 173C480.198 177.723 485.295 182.295 490 187C495.435 192.435 496.875 202.851 506.778 199.778C510.225 198.708 514.384 196.187 517.222 194.222C518.797 193.132 521.444 193.308 523.333 192C524.834 190.961 526.37 190.025 527.667 188.778C533.483 183.186 540.278 180.033 547 176" stroke="black" stroke-width="3" stroke-linecap="round"/>
</svg>
